<mxfile host="app.diagrams.net" modified="2024-01-10T18:57:39.673Z" agent="Mozilla/5.0 (Macintosh; Intel Mac OS X 10_15_7) AppleWebKit/537.36 (KHTML, like Gecko) Chrome/120.0.0.0 Safari/537.36" etag="GXJQFyNNDZfrjD6NCebL" version="22.1.18" type="github">
  <diagram name="Page-1" id="c7558073-3199-34d8-9f00-42111426c3f3">
    <mxGraphModel dx="1434" dy="748" grid="1" gridSize="10" guides="1" tooltips="1" connect="1" arrows="1" fold="1" page="1" pageScale="1" pageWidth="827" pageHeight="1169" background="none" math="0" shadow="0">
      <root>
        <mxCell id="0" />
        <mxCell id="1" parent="0" />
        <mxCell id="5" value="Create MST_PROVIDER&#xa;(As we do today)" style="shape=process;whiteSpace=wrap;align=center;verticalAlign=middle;size=0.0475;fontStyle=1;strokeWidth=3;fillColor=#FFCCCC" parent="1" vertex="1">
          <mxGeometry x="660" y="290" width="150" height="120" as="geometry" />
        </mxCell>
        <mxCell id="37" value="" style="edgeStyle=none;noEdgeStyle=1;strokeColor=#990000;strokeWidth=2;entryX=0.5;entryY=0;entryDx=0;entryDy=0;" parent="1" source="00FLoWfx2VqifltnTYOi-121" target="6" edge="1">
          <mxGeometry width="100" height="100" relative="1" as="geometry">
            <mxPoint x="280" y="190" as="sourcePoint" />
            <mxPoint x="287.1038961038962" y="236" as="targetPoint" />
          </mxGeometry>
        </mxCell>
        <mxCell id="6" value="&lt;p style=&quot;margin: 0px; margin-top: 4px; text-align: center; text-decoration: underline;&quot;&gt;&lt;strong&gt;Create Group&lt;br&gt;&lt;/strong&gt;&lt;/p&gt;&lt;hr&gt;&lt;p style=&quot;margin: 0px; margin-left: 8px;&quot;&gt;GroupId&lt;/p&gt;&lt;p style=&quot;margin: 0px; margin-left: 8px;&quot;&gt;ParentGroupId&lt;/p&gt;" style="verticalAlign=middle;align=center;overflow=fill;fontSize=12;fontFamily=Helvetica;html=1;rounded=1;fontStyle=1;strokeWidth=3;fillColor=#E6FFCC" parent="1" vertex="1">
          <mxGeometry x="350" y="380" width="110" height="90" as="geometry" />
        </mxCell>
        <mxCell id="00FLoWfx2VqifltnTYOi-98" value="&lt;p style=&quot;margin: 0px; margin-top: 4px; text-align: center; text-decoration: underline;&quot;&gt;&lt;strong&gt;Create Company&lt;br&gt;&lt;/strong&gt;&lt;/p&gt;&lt;hr&gt;&lt;p style=&quot;margin: 0px; margin-left: 8px;&quot;&gt;CompanyId&lt;/p&gt;" style="verticalAlign=middle;align=center;overflow=fill;fontSize=12;fontFamily=Helvetica;html=1;rounded=1;fontStyle=1;strokeWidth=3;fillColor=#E6FFCC;arcSize=0;" vertex="1" parent="1">
          <mxGeometry x="80" y="130" width="140" height="90" as="geometry" />
        </mxCell>
        <mxCell id="00FLoWfx2VqifltnTYOi-99" value="&lt;p style=&quot;margin: 0px; margin-top: 4px; text-align: center; text-decoration: underline;&quot;&gt;&lt;strong&gt;Create Provider&lt;br&gt;&lt;/strong&gt;&lt;/p&gt;&lt;hr&gt;&lt;p style=&quot;margin: 0px; margin-left: 8px;&quot;&gt;NPI&lt;/p&gt;&lt;p style=&quot;margin: 0px; margin-left: 8px;&quot;&gt;ParentGroupId&lt;/p&gt;&lt;p style=&quot;margin: 0px; margin-left: 8px;&quot;&gt;CompanyId&lt;/p&gt;" style="verticalAlign=middle;align=center;overflow=fill;fontSize=12;fontFamily=Helvetica;html=1;rounded=1;fontStyle=1;strokeWidth=3;fillColor=#E6FFCC" vertex="1" parent="1">
          <mxGeometry x="560" y="130" width="140" height="90" as="geometry" />
        </mxCell>
        <mxCell id="00FLoWfx2VqifltnTYOi-101" value="" style="edgeStyle=none;noEdgeStyle=1;strokeColor=#990000;strokeWidth=2;entryX=0.5;entryY=0;entryDx=0;entryDy=0;" edge="1" parent="1" source="00FLoWfx2VqifltnTYOi-121" target="00FLoWfx2VqifltnTYOi-98">
          <mxGeometry width="100" height="100" relative="1" as="geometry">
            <mxPoint x="281" y="90" as="sourcePoint" />
            <mxPoint x="281" y="170" as="targetPoint" />
            <Array as="points" />
          </mxGeometry>
        </mxCell>
        <mxCell id="00FLoWfx2VqifltnTYOi-102" value="" style="edgeStyle=none;noEdgeStyle=1;strokeColor=#990000;strokeWidth=2;" edge="1" parent="1" source="00FLoWfx2VqifltnTYOi-121" target="00FLoWfx2VqifltnTYOi-99">
          <mxGeometry width="100" height="100" relative="1" as="geometry">
            <mxPoint x="281" y="90" as="sourcePoint" />
            <mxPoint x="105" y="170" as="targetPoint" />
            <Array as="points" />
          </mxGeometry>
        </mxCell>
        <mxCell id="00FLoWfx2VqifltnTYOi-109" value="Create Keycloak Group under a ParentGroup (already created)&#xa;with following attributes: &#xa;npi (single value)&#xa;parentGroupId&#xa;companyId" style="shape=process;whiteSpace=wrap;align=center;verticalAlign=middle;size=0.0475;fontStyle=1;strokeWidth=3;fillColor=#FFCCCC" vertex="1" parent="1">
          <mxGeometry x="470" y="260" width="170" height="115" as="geometry" />
        </mxCell>
        <mxCell id="00FLoWfx2VqifltnTYOi-110" value="" style="edgeStyle=none;noEdgeStyle=1;strokeColor=#990000;strokeWidth=2;entryX=0.453;entryY=0.017;entryDx=0;entryDy=0;exitX=0.5;exitY=1;exitDx=0;exitDy=0;entryPerimeter=0;" edge="1" parent="1" source="00FLoWfx2VqifltnTYOi-99" target="00FLoWfx2VqifltnTYOi-109">
          <mxGeometry width="100" height="100" relative="1" as="geometry">
            <mxPoint x="392" y="120" as="sourcePoint" />
            <mxPoint x="315" y="220" as="targetPoint" />
          </mxGeometry>
        </mxCell>
        <mxCell id="00FLoWfx2VqifltnTYOi-111" value="" style="edgeStyle=none;noEdgeStyle=1;strokeColor=#990000;strokeWidth=2;exitX=0.579;exitY=1.033;exitDx=0;exitDy=0;exitPerimeter=0;" edge="1" parent="1" source="00FLoWfx2VqifltnTYOi-99" target="5">
          <mxGeometry width="100" height="100" relative="1" as="geometry">
            <mxPoint x="640" y="250" as="sourcePoint" />
            <mxPoint x="527" y="307" as="targetPoint" />
          </mxGeometry>
        </mxCell>
        <mxCell id="00FLoWfx2VqifltnTYOi-112" value="Create MST_GROUP_DTL&#xa;with a new ParentGroupId" style="shape=process;whiteSpace=wrap;align=center;verticalAlign=middle;size=0.0475;fontStyle=1;strokeWidth=3;fillColor=#FFCCCC" vertex="1" parent="1">
          <mxGeometry x="430" y="540" width="180" height="120" as="geometry" />
        </mxCell>
        <mxCell id="00FLoWfx2VqifltnTYOi-113" value="Create Keycloak Parent Group with following attributes:&#xa;companyId&#xa;groupIdentifier/SID&#xa;&#xa;" style="shape=process;whiteSpace=wrap;align=center;verticalAlign=middle;size=0.0475;fontStyle=1;strokeWidth=3;fillColor=#FFCCCC" vertex="1" parent="1">
          <mxGeometry x="243" y="540" width="170" height="115" as="geometry" />
        </mxCell>
        <mxCell id="00FLoWfx2VqifltnTYOi-114" value="" style="edgeStyle=none;noEdgeStyle=1;strokeColor=#990000;strokeWidth=2;entryX=0.453;entryY=0.017;entryDx=0;entryDy=0;exitX=0.382;exitY=1.011;exitDx=0;exitDy=0;entryPerimeter=0;exitPerimeter=0;" edge="1" parent="1" target="00FLoWfx2VqifltnTYOi-113" source="6">
          <mxGeometry width="100" height="100" relative="1" as="geometry">
            <mxPoint x="300" y="340" as="sourcePoint" />
            <mxPoint x="-15" y="320" as="targetPoint" />
          </mxGeometry>
        </mxCell>
        <mxCell id="00FLoWfx2VqifltnTYOi-115" value="" style="edgeStyle=none;noEdgeStyle=1;strokeColor=#990000;strokeWidth=2;exitX=0.5;exitY=1;exitDx=0;exitDy=0;" edge="1" parent="1" target="00FLoWfx2VqifltnTYOi-112" source="6">
          <mxGeometry width="100" height="100" relative="1" as="geometry">
            <mxPoint x="311" y="343" as="sourcePoint" />
            <mxPoint x="197" y="407" as="targetPoint" />
          </mxGeometry>
        </mxCell>
        <mxCell id="00FLoWfx2VqifltnTYOi-116" value="Create Keycloak TopLevel Group with following attributes:&#xa;companyId" style="shape=process;whiteSpace=wrap;align=center;verticalAlign=middle;size=0.0475;fontStyle=1;strokeWidth=3;fillColor=#FFCCCC" vertex="1" parent="1">
          <mxGeometry x="20" y="340" width="170" height="115" as="geometry" />
        </mxCell>
        <mxCell id="00FLoWfx2VqifltnTYOi-117" value="Create Company Row or Update Billing SuperGroup" style="shape=process;whiteSpace=wrap;align=center;verticalAlign=middle;size=0.0475;fontStyle=1;strokeWidth=3;fillColor=#FFCCCC" vertex="1" parent="1">
          <mxGeometry x="200" y="260" width="150" height="114.5" as="geometry" />
        </mxCell>
        <mxCell id="00FLoWfx2VqifltnTYOi-118" value="" style="edgeStyle=none;noEdgeStyle=1;strokeColor=#990000;strokeWidth=2;entryX=0.5;entryY=0;entryDx=0;entryDy=0;exitX=0.429;exitY=1.022;exitDx=0;exitDy=0;exitPerimeter=0;" edge="1" parent="1" source="00FLoWfx2VqifltnTYOi-98" target="00FLoWfx2VqifltnTYOi-116">
          <mxGeometry width="100" height="100" relative="1" as="geometry">
            <mxPoint x="200" y="260" as="sourcePoint" />
            <mxPoint x="110" y="290" as="targetPoint" />
            <Array as="points" />
          </mxGeometry>
        </mxCell>
        <mxCell id="00FLoWfx2VqifltnTYOi-119" value="" style="edgeStyle=none;noEdgeStyle=1;strokeColor=#990000;strokeWidth=2;exitX=0.5;exitY=1;exitDx=0;exitDy=0;" edge="1" parent="1" source="00FLoWfx2VqifltnTYOi-98" target="00FLoWfx2VqifltnTYOi-117">
          <mxGeometry width="100" height="100" relative="1" as="geometry">
            <mxPoint x="150" y="232" as="sourcePoint" />
            <mxPoint x="115" y="350" as="targetPoint" />
            <Array as="points" />
          </mxGeometry>
        </mxCell>
        <mxCell id="00FLoWfx2VqifltnTYOi-121" value="Onboarder" style="shape=umlActor;verticalLabelPosition=bottom;verticalAlign=top;html=1;outlineConnect=0;fillColor=#dae8fc;strokeColor=#6c8ebf;strokeWidth=4;perimeterSpacing=8;shadow=1;labelBackgroundColor=#FFD4F3;gradientColor=default;labelBorderColor=none;spacingTop=-3;spacing=5;spacingLeft=0;whiteSpace=wrap;" vertex="1" parent="1">
          <mxGeometry x="384" y="60" width="30" height="60" as="geometry" />
        </mxCell>
        <mxCell id="00FLoWfx2VqifltnTYOi-122" value="MST_PROVIDER Criteria" style="swimlane;fontStyle=0;childLayout=stackLayout;horizontal=1;startSize=30;horizontalStack=0;resizeParent=1;resizeParentMax=0;resizeLast=0;collapsible=1;marginBottom=0;whiteSpace=wrap;html=1;" vertex="1" parent="1">
          <mxGeometry x="54" y="770" width="616" height="100" as="geometry">
            <mxRectangle x="54" y="770" width="180" height="30" as="alternateBounds" />
          </mxGeometry>
        </mxCell>
        <mxCell id="00FLoWfx2VqifltnTYOi-123" value="&lt;div style=&quot;background-color:#ffffff;color:#080808&quot;&gt;&lt;pre style=&quot;font-family:&#39;JetBrains Mono&#39;,monospace;font-size:9.8pt;&quot;&gt;&lt;pre style=&quot;border-color: var(--border-color); font-family: &amp;quot;JetBrains Mono&amp;quot;, monospace; font-size: 9.8pt;&quot;&gt;GROUP_IDNTFR in (group list from Keycloak token - required for GroupAdmin) &lt;/pre&gt;&lt;/pre&gt;&lt;pre style=&quot;font-family:&#39;JetBrains Mono&#39;,monospace;font-size:9.8pt;&quot;&gt;NPI_IDENTIFIER in (npi list from Keycloak token - required for GroupUsers) &lt;/pre&gt;&lt;/div&gt;" style="text;strokeColor=none;fillColor=none;align=left;verticalAlign=middle;spacingLeft=4;spacingRight=4;overflow=hidden;points=[[0,0.5],[1,0.5]];portConstraint=eastwest;rotatable=0;whiteSpace=wrap;html=1;" vertex="1" parent="00FLoWfx2VqifltnTYOi-122">
          <mxGeometry y="30" width="616" height="70" as="geometry" />
        </mxCell>
      </root>
    </mxGraphModel>
  </diagram>
</mxfile>
